<svg xmlns="http://www.w3.org/2000/svg" width="44" height="44" viewBox="0 0 44 44" fill="none">
  <path d="M22 44C34.1503 44 44 34.1503 44 22C44 9.84974 34.1503 0 22 0C9.84974 0 0 9.84974 0 22C0 34.1503 9.84974 44 22 44Z" fill="#2D69FD"/>
  <path d="M19.107 17.9619C18.5558 17.9619 18.0046 17.9619 17.4534 17.9619C17.4534 19.2479 17.4534 20.5338 17.4534 21.8198C18.0046 21.8198 18.5558 21.8198 19.107 21.8198C19.107 21.3337 19.107 20.8477 19.107 20.3617C19.7978 20.6694 20.4887 20.9772 21.1795 21.285C21.1795 19.8207 21.1795 18.3564 21.1795 16.8921C20.4887 17.1999 19.7978 17.5076 19.107 17.8154C19.107 17.5309 19.107 17.2464 19.107 16.9619C14.639 16.9619 10.1682 16.9619 5.70029 16.9619C5.70029 22.8154 5.70029 28.6688 5.70029 34.5193C6.39109 34.5193 7.08189 34.5193 7.77268 34.5193C7.77268 28.6659 7.77268 22.8125 7.77268 16.962C10.7223 16.962 13.6719 16.962 16.6215 16.962C16.6215 17.2958 16.6215 17.6296 16.6215 17.9634C14.211 17.9634 11.8004 17.9634 9.38987 17.9634C9.38987 19.6151 9.38987 21.2637 9.38987 22.9154C11.8004 22.9154 14.211 22.9154 16.6215 22.9154C16.6215 24.5702 16.6215 26.2219 16.6215 27.8736C14.211 27.8736 11.8004 27.8736 9.38987 27.8736C9.38987 29.5254 9.38987 31.1771 9.38987 32.8288C11.8004 32.8288 14.211 32.8288 16.6186 32.8288C16.6186 33.3903 16.6186 33.9519 16.6186 34.5134C17.3094 34.5134 18.0002 34.5134 18.691 34.5134C18.691 30.8125 18.691 27.1117 18.691 23.4108C18.1398 23.4108 17.5886 23.4108 17.0374 23.4108C17.0374 26.3755 17.0374 29.3403 17.0374 32.305C14.8864 32.305 12.7354 32.305 10.5843 32.305C10.5843 30.9984 10.5843 29.6948 10.5843 28.3882C12.7354 28.3882 14.8864 28.3882 17.0374 28.3882C17.0374 26.4974 17.0374 24.6065 17.0374 22.7157C14.8864 22.7157 12.7354 22.7157 10.5843 22.7157C10.5843 21.409 10.5843 20.1054 10.5843 18.7988C12.7354 18.7988 14.8864 18.7988 17.0345 18.7988C17.0345 18.52 17.0345 18.2411 17.0345 17.9622C17.7282 17.9622 18.4176 17.9622 19.107 17.9622L19.107 17.9619Z" fill="white"/>
  <path d="M29.3615 9.63867C29.0196 9.86595 28.6778 10.0932 28.3359 10.3205C28.3359 18.3915 28.3359 26.4655 28.3359 34.5366C29.0267 34.5366 29.7175 34.5366 30.4083 34.5366C30.4083 26.4656 30.4083 18.3916 30.4083 10.3205C30.0664 10.0933 29.7246 9.86603 29.3827 9.63875C29.3769 9.63875 29.3682 9.63867 29.3624 9.63867C29.362 9.63867 29.3619 9.63867 29.3615 9.63867Z" fill="white"/>
  <path d="M35.1419 15.5625C34.5907 15.5625 34.0395 15.5625 33.4883 15.5625C33.4883 21.8868 33.4883 28.2111 33.4883 34.5355C34.1791 34.5355 34.8699 34.5355 35.5607 34.5355C35.5607 33.5473 35.5607 32.5591 35.5607 31.5679C36.2515 31.5679 36.9423 31.5679 37.6331 31.5679C37.6331 30.5768 37.6331 29.5857 37.6331 28.5945C36.9423 28.5945 36.2515 28.5945 35.5607 28.5945C35.5607 24.2503 35.5607 19.9062 35.5607 15.5621C35.4215 15.5625 35.2823 15.5625 35.1419 15.5625Z" fill="white"/>
  <path d="M13.0237 9.49023C13.0237 11.7238 13.0237 13.9574 13.0237 16.1909C13.7145 16.1909 14.4053 16.1909 15.0961 16.1909C15.0961 13.9574 15.0961 11.7238 15.0961 9.49023C14.4053 9.49023 13.7145 9.49023 13.0237 9.49023Z" fill="white"/>
  <path d="M7.77283 9.48828C7.77283 11.7218 7.77283 13.9554 7.77283 16.189C8.46362 16.189 9.15442 16.189 9.84522 16.189C9.84522 13.9554 9.84522 11.7218 9.84522 9.48828C9.15442 9.48828 8.46362 9.48828 7.77283 9.48828Z" fill="white"/>
  <path d="M24.7037 9.48633C24.0129 9.48633 23.3221 9.48633 22.6313 9.48633C22.6313 9.69505 22.6313 9.90377 22.6313 10.1125C22.9961 10.3515 23.3608 10.5906 23.7255 10.8296C24.0508 10.6257 24.3732 10.4219 24.6985 10.218C24.6985 9.97583 24.6985 9.7337 24.7037 9.48633H24.7037Z" fill="white"/>
  <path d="M23.7253 10.8301C23.7253 18.7323 23.7253 26.6376 23.7253 34.5397C24.4161 34.5397 25.1069 34.5397 25.7977 34.5397C25.7977 26.6375 25.7977 18.7322 25.7977 10.8301C25.1069 10.8301 24.4161 10.8301 23.7253 10.8301Z" fill="white"/>
  <path d="M38.2998 28.5938C38.2998 30.5734 38.2998 32.5531 38.2998 34.5328C38.9906 34.5328 39.6814 34.5328 40.3722 34.5328C40.3722 32.5531 40.3722 30.5734 40.3722 28.5938C39.6814 28.5938 38.9906 28.5938 38.2998 28.5938Z" fill="white"/>
  <path d="M19.1079 12.3105C19.1079 11.3675 19.1079 10.4246 19.1079 9.48438C18.417 9.48438 17.7262 9.48438 17.0354 9.48438C17.0354 10.4273 17.0354 11.3703 17.0354 12.3105C16.7247 12.3105 16.4139 12.3105 16.1061 12.3105C16.1061 13.0277 16.1061 13.7448 16.1061 14.462C17.0855 14.462 18.068 14.462 19.0474 14.462C19.0474 13.7448 19.0474 13.0277 19.0474 12.3105C19.0679 12.3105 19.0854 12.3105 19.1079 12.3105Z" fill="white"/>
  <path d="M20.8857 13.6113C20.8857 14.2318 20.8857 14.8522 20.8857 15.4727C21.8254 15.4727 22.7679 15.4727 23.7076 15.4727C23.7076 14.8522 23.7076 14.2318 23.7076 13.6113C22.7679 13.6113 21.8254 13.6113 20.8857 13.6113Z" fill="white"/>
</svg>
